<svg width="722" height="340" viewBox="0 0 722 340" fill="none" xmlns="http://www.w3.org/2000/svg">
<rect width="722" height="340" fill="url(#paint0_linear_1005_715)"/>
<path d="M159.016 153.096C159.016 154.104 158.661 154.963 157.952 155.672C157.243 156.381 156.384 156.736 155.376 156.736C154.368 156.736 153.509 156.381 152.8 155.672C152.091 154.963 151.736 154.104 151.736 153.096C151.736 152.088 152.091 151.229 152.8 150.52C153.509 149.811 154.368 149.456 155.376 149.456C156.384 149.456 157.243 149.811 157.952 150.52C158.661 151.229 159.016 152.088 159.016 153.096ZM149.72 202.656C148.6 202.656 147.592 202.469 146.696 202.096L148.04 197.616C148.637 197.84 149.141 197.952 149.552 197.952C151.643 197.952 152.725 196.664 152.8 194.088V162.56H157.952V193.304C157.952 199.539 155.208 202.656 149.72 202.656ZM172.945 186.528C172.945 187.573 172.571 188.469 171.825 189.216C171.115 189.963 170.219 190.336 169.137 190.336C168.091 190.336 167.195 189.963 166.449 189.216C165.702 188.469 165.329 187.573 165.329 186.528C165.329 185.445 165.702 184.549 166.449 183.84C167.195 183.093 168.091 182.72 169.137 182.72C170.219 182.72 171.115 183.093 171.825 183.84C172.571 184.549 172.945 185.445 172.945 186.528ZM192.232 186.192C194.771 186.192 196.843 185.277 198.448 183.448C200.128 181.619 200.968 179.229 200.968 176.28C200.968 173.405 200.128 171.035 198.448 169.168C196.806 167.301 194.734 166.368 192.232 166.368C189.768 166.368 187.696 167.301 186.016 169.168C184.336 171.035 183.496 173.405 183.496 176.28C183.496 179.192 184.336 181.563 186.016 183.392C187.696 185.259 189.768 186.192 192.232 186.192ZM191.392 190.896C187.808 190.896 184.728 189.477 182.152 186.64C179.614 183.765 178.344 180.312 178.344 176.28C178.344 172.248 179.614 168.795 182.152 165.92C184.728 163.083 187.808 161.664 191.392 161.664C193.408 161.664 195.238 162.093 196.88 162.952C198.56 163.811 199.848 164.949 200.744 166.368H200.968L200.744 162.56V149.904H205.896V190H200.968V186.192H200.744C199.848 187.611 198.56 188.749 196.88 189.608C195.238 190.467 193.408 190.896 191.392 190.896ZM211.457 176.28C211.457 172.061 212.782 168.571 215.433 165.808C218.121 163.045 221.499 161.664 225.569 161.664C229.638 161.664 232.998 163.045 235.649 165.808C238.337 168.571 239.681 172.061 239.681 176.28C239.681 180.536 238.337 184.027 235.649 186.752C232.998 189.515 229.638 190.896 225.569 190.896C221.499 190.896 218.121 189.515 215.433 186.752C212.782 183.989 211.457 180.499 211.457 176.28ZM216.609 176.28C216.609 179.229 217.467 181.619 219.185 183.448C220.902 185.277 223.03 186.192 225.569 186.192C228.107 186.192 230.235 185.277 231.953 183.448C233.67 181.619 234.529 179.229 234.529 176.28C234.529 173.368 233.67 170.997 231.953 169.168C230.198 167.301 228.07 166.368 225.569 166.368C223.067 166.368 220.939 167.301 219.185 169.168C217.467 170.997 216.609 173.368 216.609 176.28ZM257.801 190.896C253.769 190.896 250.446 189.515 247.833 186.752C245.219 183.989 243.913 180.499 243.913 176.28C243.913 172.099 245.182 168.627 247.721 165.864C250.259 163.064 253.507 161.664 257.465 161.664C261.534 161.664 264.763 162.989 267.153 165.64C269.579 168.253 270.793 171.931 270.793 176.672L270.737 177.232H249.177C249.251 179.92 250.147 182.085 251.865 183.728C253.582 185.371 255.635 186.192 258.025 186.192C261.31 186.192 263.886 184.549 265.753 181.264L270.345 183.504C269.113 185.819 267.395 187.629 265.193 188.936C263.027 190.243 260.563 190.896 257.801 190.896ZM249.569 172.976H265.305C265.155 171.072 264.371 169.504 262.953 168.272C261.571 167.003 259.705 166.368 257.353 166.368C255.411 166.368 253.731 166.965 252.313 168.16C250.931 169.355 250.017 170.96 249.569 172.976ZM319.632 172.976C319.632 176.56 318.885 179.397 317.392 181.488C315.899 183.579 313.845 184.624 311.232 184.624C308.432 184.624 306.341 183.261 304.96 180.536C303.131 183.261 300.517 184.624 297.12 184.624C293.984 184.624 291.389 183.541 289.336 181.376C287.283 179.211 286.256 176.485 286.256 173.2C286.256 169.952 287.283 167.245 289.336 165.08C291.427 162.877 293.947 161.776 296.896 161.776C299.771 161.776 302.16 162.877 304.064 165.08H304.288V162.56H308.32V176.504C308.32 179.491 309.421 180.984 311.624 180.984C314.275 180.984 315.6 178.315 315.6 172.976C315.6 168.123 313.883 163.979 310.448 160.544C307.013 157.109 302.832 155.392 297.904 155.392C292.976 155.392 288.795 157.109 285.36 160.544C281.925 163.979 280.208 168.123 280.208 172.976C280.208 177.867 281.925 182.029 285.36 185.464C288.757 188.861 292.939 190.56 297.904 190.56C300.592 190.56 302.963 190.037 305.016 188.992L306.584 192.8C303.896 193.995 301.003 194.592 297.904 194.592C293.909 194.592 290.213 193.64 286.816 191.736C283.493 189.832 280.843 187.2 278.864 183.84C277.893 182.123 277.165 180.349 276.68 178.52C276.195 176.691 275.952 174.824 275.952 172.92C275.952 171.053 276.176 169.224 276.624 167.432C277.109 165.603 277.837 163.848 278.808 162.168C279.779 160.488 280.936 158.976 282.28 157.632C283.661 156.288 285.173 155.168 286.816 154.272C288.496 153.339 290.269 152.629 292.136 152.144C294.003 151.621 295.925 151.36 297.904 151.36C301.861 151.36 305.501 152.312 308.824 154.216C312.184 156.12 314.816 158.752 316.72 162.112C318.661 165.435 319.632 169.056 319.632 172.976ZM290.736 173.2C290.736 174.245 290.904 175.216 291.24 176.112C291.576 176.971 292.043 177.717 292.64 178.352C293.275 178.987 294.003 179.491 294.824 179.864C295.645 180.2 296.541 180.368 297.512 180.368C298.483 180.368 299.379 180.2 300.2 179.864C301.021 179.491 301.731 179.005 302.328 178.408C302.963 177.773 303.448 177.027 303.784 176.168C304.12 175.272 304.288 174.283 304.288 173.2C304.288 172.155 304.12 171.184 303.784 170.288C303.448 169.392 302.963 168.645 302.328 168.048C301.731 167.413 301.021 166.928 300.2 166.592C299.379 166.219 298.483 166.032 297.512 166.032C296.541 166.032 295.645 166.219 294.824 166.592C294.003 166.928 293.275 167.413 292.64 168.048C292.043 168.683 291.576 169.448 291.24 170.344C290.904 171.203 290.736 172.155 290.736 173.2ZM330.113 181.6C330.113 182.944 330.673 184.064 331.793 184.96C332.95 185.856 334.294 186.304 335.825 186.304C337.99 186.304 339.913 185.501 341.593 183.896C343.31 182.291 344.169 180.405 344.169 178.24C342.564 176.971 340.324 176.336 337.449 176.336C335.358 176.336 333.604 176.84 332.185 177.848C330.804 178.856 330.113 180.107 330.113 181.6ZM336.777 161.664C340.585 161.664 343.59 162.691 345.793 164.744C347.996 166.76 349.097 169.541 349.097 173.088V190H344.169V186.192H343.945C341.817 189.328 338.98 190.896 335.433 190.896C332.409 190.896 329.87 190 327.817 188.208C325.801 186.416 324.793 184.176 324.793 181.488C324.793 178.651 325.857 176.392 327.985 174.712C330.15 173.032 333.025 172.192 336.609 172.192C339.67 172.192 342.19 172.752 344.169 173.872V172.696C344.169 170.904 343.46 169.392 342.041 168.16C340.622 166.891 338.961 166.256 337.057 166.256C334.182 166.256 331.905 167.469 330.225 169.896L325.689 167.04C328.19 163.456 331.886 161.664 336.777 161.664ZM368.299 190.896C364.229 190.896 360.851 189.515 358.163 186.752C355.512 183.915 354.187 180.424 354.187 176.28C354.187 172.061 355.512 168.571 358.163 165.808C360.851 163.045 364.229 161.664 368.299 161.664C371.099 161.664 373.544 162.373 375.635 163.792C377.725 165.173 379.293 167.096 380.339 169.56L375.635 171.52C374.179 168.085 371.621 166.368 367.963 166.368C365.611 166.368 363.576 167.32 361.859 169.224C360.179 171.128 359.339 173.48 359.339 176.28C359.339 179.08 360.179 181.432 361.859 183.336C363.576 185.24 365.611 186.192 367.963 186.192C371.733 186.192 374.384 184.475 375.915 181.04L380.507 183C379.499 185.464 377.912 187.405 375.747 188.824C373.619 190.205 371.136 190.896 368.299 190.896ZM391.284 190H386.132V162.56H391.06V166.368H391.284C392.068 165.024 393.263 163.904 394.868 163.008C396.511 162.112 398.135 161.664 399.74 161.664C401.756 161.664 403.53 162.131 405.06 163.064C406.591 163.997 407.711 165.285 408.42 166.928C410.698 163.419 413.852 161.664 417.884 161.664C421.058 161.664 423.503 162.635 425.22 164.576C426.938 166.517 427.796 169.28 427.796 172.864V190H422.644V173.648C422.644 171.072 422.178 169.224 421.244 168.104C420.311 166.947 418.743 166.368 416.54 166.368C414.562 166.368 412.9 167.208 411.556 168.888C410.212 170.568 409.54 172.547 409.54 174.824V190H404.388V173.648C404.388 171.072 403.922 169.224 402.988 168.104C402.055 166.947 400.487 166.368 398.284 166.368C396.306 166.368 394.644 167.208 393.3 168.888C391.956 170.568 391.284 172.547 391.284 174.824V190ZM447.26 190.896C443.228 190.896 439.905 189.515 437.292 186.752C434.679 183.989 433.372 180.499 433.372 176.28C433.372 172.099 434.641 168.627 437.18 165.864C439.719 163.064 442.967 161.664 446.924 161.664C450.993 161.664 454.223 162.989 456.612 165.64C459.039 168.253 460.252 171.931 460.252 176.672L460.196 177.232H438.636C438.711 179.92 439.607 182.085 441.324 183.728C443.041 185.371 445.095 186.192 447.484 186.192C450.769 186.192 453.345 184.549 455.212 181.264L459.804 183.504C458.572 185.819 456.855 187.629 454.652 188.936C452.487 190.243 450.023 190.896 447.26 190.896ZM439.028 172.976H454.764C454.615 171.072 453.831 169.504 452.412 168.272C451.031 167.003 449.164 166.368 446.812 166.368C444.871 166.368 443.191 166.965 441.772 168.16C440.391 169.355 439.476 170.96 439.028 172.976ZM473.251 186.528C473.251 187.573 472.878 188.469 472.131 189.216C471.422 189.963 470.526 190.336 469.443 190.336C468.398 190.336 467.502 189.963 466.755 189.216C466.009 188.469 465.635 187.573 465.635 186.528C465.635 185.445 466.009 184.549 466.755 183.84C467.502 183.093 468.398 182.72 469.443 182.72C470.526 182.72 471.422 183.093 472.131 183.84C472.878 184.549 473.251 185.445 473.251 186.528ZM492.763 190.896C488.694 190.896 485.315 189.515 482.627 186.752C479.976 183.915 478.651 180.424 478.651 176.28C478.651 172.061 479.976 168.571 482.627 165.808C485.315 163.045 488.694 161.664 492.763 161.664C495.563 161.664 498.008 162.373 500.099 163.792C502.19 165.173 503.758 167.096 504.803 169.56L500.099 171.52C498.643 168.085 496.086 166.368 492.427 166.368C490.075 166.368 488.04 167.32 486.323 169.224C484.643 171.128 483.803 173.48 483.803 176.28C483.803 179.08 484.643 181.432 486.323 183.336C488.04 185.24 490.075 186.192 492.427 186.192C496.198 186.192 498.848 184.475 500.379 181.04L504.971 183C503.963 185.464 502.376 187.405 500.211 188.824C498.083 190.205 495.6 190.896 492.763 190.896ZM508.755 176.28C508.755 172.061 510.081 168.571 512.731 165.808C515.419 163.045 518.798 161.664 522.867 161.664C526.937 161.664 530.297 163.045 532.947 165.808C535.635 168.571 536.979 172.061 536.979 176.28C536.979 180.536 535.635 184.027 532.947 186.752C530.297 189.515 526.937 190.896 522.867 190.896C518.798 190.896 515.419 189.515 512.731 186.752C510.081 183.989 508.755 180.499 508.755 176.28ZM513.907 176.28C513.907 179.229 514.766 181.619 516.483 183.448C518.201 185.277 520.329 186.192 522.867 186.192C525.406 186.192 527.534 185.277 529.251 183.448C530.969 181.619 531.827 179.229 531.827 176.28C531.827 173.368 530.969 170.997 529.251 169.168C527.497 167.301 525.369 166.368 522.867 166.368C520.366 166.368 518.238 167.301 516.483 169.168C514.766 170.997 513.907 173.368 513.907 176.28ZM547.384 190H542.232V162.56H547.16V166.368H547.384C548.168 165.024 549.363 163.904 550.968 163.008C552.611 162.112 554.235 161.664 555.84 161.664C557.856 161.664 559.63 162.131 561.16 163.064C562.691 163.997 563.811 165.285 564.52 166.928C566.798 163.419 569.952 161.664 573.984 161.664C577.158 161.664 579.603 162.635 581.32 164.576C583.038 166.517 583.896 169.28 583.896 172.864V190H578.744V173.648C578.744 171.072 578.278 169.224 577.344 168.104C576.411 166.947 574.843 166.368 572.64 166.368C570.662 166.368 569 167.208 567.656 168.888C566.312 170.568 565.64 172.547 565.64 174.824V190H560.488V173.648C560.488 171.072 560.022 169.224 559.088 168.104C558.155 166.947 556.587 166.368 554.384 166.368C552.406 166.368 550.744 167.208 549.4 168.888C548.056 170.568 547.384 172.547 547.384 174.824V190Z" fill="#3F51B5"/>
<path d="M330 102C330 97.5817 333.582 94 338 94H574C578.418 94 582 97.5817 582 102V123C582 127.418 578.418 131 574 131H338C333.582 131 330 127.418 330 123V102Z" fill="#ECEFFB"/>
<path d="M462 146L467.196 131H456.804L462 146Z" fill="#ECEFFB"/>
<path d="M396.679 119.384C394.951 119.384 393.527 118.792 392.407 117.608C391.287 116.424 390.727 114.928 390.727 113.12C390.727 111.328 391.271 109.84 392.359 108.656C393.447 107.456 394.839 106.856 396.535 106.856C398.279 106.856 399.663 107.424 400.687 108.56C401.727 109.68 402.247 111.256 402.247 113.288L402.223 113.528H392.983C393.015 114.68 393.399 115.608 394.135 116.312C394.871 117.016 395.751 117.368 396.775 117.368C398.183 117.368 399.287 116.664 400.087 115.256L402.055 116.216C401.527 117.208 400.791 117.984 399.847 118.544C398.919 119.104 397.863 119.384 396.679 119.384ZM393.151 111.704H399.895C399.831 110.888 399.495 110.216 398.887 109.688C398.295 109.144 397.495 108.872 396.487 108.872C395.655 108.872 394.935 109.128 394.327 109.64C393.735 110.152 393.343 110.84 393.151 111.704ZM406.955 119H404.747V107.24H406.859V108.872H406.955C407.291 108.296 407.803 107.816 408.491 107.432C409.195 107.048 409.891 106.856 410.579 106.856C411.443 106.856 412.203 107.056 412.859 107.456C413.515 107.856 413.995 108.408 414.299 109.112C415.275 107.608 416.627 106.856 418.355 106.856C419.715 106.856 420.763 107.272 421.499 108.104C422.235 108.936 422.603 110.12 422.603 111.656V119H420.395V111.992C420.395 110.888 420.195 110.096 419.795 109.616C419.395 109.12 418.723 108.872 417.779 108.872C416.931 108.872 416.219 109.232 415.643 109.952C415.067 110.672 414.779 111.52 414.779 112.496V119H412.571V111.992C412.571 110.888 412.371 110.096 411.971 109.616C411.571 109.12 410.899 108.872 409.955 108.872C409.107 108.872 408.395 109.232 407.819 109.952C407.243 110.672 406.955 111.52 406.955 112.496V119ZM427.155 115.4C427.155 115.976 427.395 116.456 427.875 116.84C428.371 117.224 428.947 117.416 429.603 117.416C430.531 117.416 431.355 117.072 432.075 116.384C432.811 115.696 433.179 114.888 433.179 113.96C432.491 113.416 431.531 113.144 430.299 113.144C429.403 113.144 428.651 113.36 428.043 113.792C427.451 114.224 427.155 114.76 427.155 115.4ZM430.011 106.856C431.643 106.856 432.931 107.296 433.875 108.176C434.819 109.04 435.291 110.232 435.291 111.752V119H433.179V117.368H433.083C432.171 118.712 430.955 119.384 429.435 119.384C428.139 119.384 427.051 119 426.171 118.232C425.307 117.464 424.875 116.504 424.875 115.352C424.875 114.136 425.331 113.168 426.243 112.448C427.171 111.728 428.403 111.368 429.939 111.368C431.251 111.368 432.331 111.608 433.179 112.088V111.584C433.179 110.816 432.875 110.168 432.267 109.64C431.659 109.096 430.947 108.824 430.131 108.824C428.899 108.824 427.923 109.344 427.203 110.384L425.259 109.16C426.331 107.624 427.915 106.856 430.011 106.856ZM441.117 103.184C441.117 103.616 440.965 103.984 440.661 104.288C440.357 104.592 439.989 104.744 439.557 104.744C439.125 104.744 438.757 104.592 438.453 104.288C438.149 103.984 437.997 103.616 437.997 103.184C437.997 102.752 438.149 102.384 438.453 102.08C438.757 101.776 439.125 101.624 439.557 101.624C439.989 101.624 440.357 101.776 440.661 102.08C440.965 102.384 441.117 102.752 441.117 103.184ZM440.661 107.24V119H438.453V107.24H440.661ZM446.223 101.816V119H444.015V101.816H446.223ZM460.427 117.368C461.515 117.368 462.403 116.976 463.091 116.192C463.811 115.408 464.171 114.384 464.171 113.12C464.171 111.888 463.811 110.872 463.091 110.072C462.387 109.272 461.499 108.872 460.427 108.872C459.371 108.872 458.483 109.272 457.763 110.072C457.043 110.872 456.683 111.888 456.683 113.12C456.683 114.368 457.043 115.384 457.763 116.168C458.483 116.968 459.371 117.368 460.427 117.368ZM460.067 119.384C458.531 119.384 457.211 118.776 456.107 117.56C455.019 116.328 454.475 114.848 454.475 113.12C454.475 111.392 455.019 109.912 456.107 108.68C457.211 107.464 458.531 106.856 460.067 106.856C460.931 106.856 461.715 107.04 462.419 107.408C463.139 107.776 463.691 108.264 464.075 108.872H464.171L464.075 107.24V101.816H466.283V119H464.171V117.368H464.075C463.691 117.976 463.139 118.464 462.419 118.832C461.715 119.2 460.931 119.384 460.067 119.384ZM468.665 113.12C468.665 111.312 469.233 109.816 470.369 108.632C471.521 107.448 472.969 106.856 474.713 106.856C476.457 106.856 477.897 107.448 479.033 108.632C480.185 109.816 480.761 111.312 480.761 113.12C480.761 114.944 480.185 116.44 479.033 117.608C477.897 118.792 476.457 119.384 474.713 119.384C472.969 119.384 471.521 118.792 470.369 117.608C469.233 116.424 468.665 114.928 468.665 113.12ZM470.873 113.12C470.873 114.384 471.241 115.408 471.977 116.192C472.713 116.976 473.625 117.368 474.713 117.368C475.801 117.368 476.713 116.976 477.449 116.192C478.185 115.408 478.553 114.384 478.553 113.12C478.553 111.872 478.185 110.856 477.449 110.072C476.697 109.272 475.785 108.872 474.713 108.872C473.641 108.872 472.729 109.272 471.977 110.072C471.241 110.856 470.873 111.872 470.873 113.12ZM485.221 119H483.013V107.24H485.125V108.872H485.221C485.557 108.296 486.069 107.816 486.757 107.432C487.461 107.048 488.157 106.856 488.845 106.856C489.709 106.856 490.469 107.056 491.125 107.456C491.781 107.856 492.261 108.408 492.565 109.112C493.541 107.608 494.893 106.856 496.621 106.856C497.981 106.856 499.029 107.272 499.765 108.104C500.501 108.936 500.869 110.12 500.869 111.656V119H498.661V111.992C498.661 110.888 498.461 110.096 498.061 109.616C497.661 109.12 496.989 108.872 496.045 108.872C495.197 108.872 494.485 109.232 493.909 109.952C493.333 110.672 493.045 111.52 493.045 112.496V119H490.837V111.992C490.837 110.888 490.637 110.096 490.237 109.616C489.837 109.12 489.165 108.872 488.221 108.872C487.373 108.872 486.661 109.232 486.085 109.952C485.509 110.672 485.221 111.52 485.221 112.496V119ZM505.421 115.4C505.421 115.976 505.661 116.456 506.141 116.84C506.637 117.224 507.213 117.416 507.869 117.416C508.797 117.416 509.621 117.072 510.341 116.384C511.077 115.696 511.445 114.888 511.445 113.96C510.757 113.416 509.797 113.144 508.565 113.144C507.669 113.144 506.917 113.36 506.309 113.792C505.717 114.224 505.421 114.76 505.421 115.4ZM508.277 106.856C509.909 106.856 511.197 107.296 512.141 108.176C513.085 109.04 513.557 110.232 513.557 111.752V119H511.445V117.368H511.349C510.437 118.712 509.221 119.384 507.701 119.384C506.405 119.384 505.317 119 504.437 118.232C503.573 117.464 503.141 116.504 503.141 115.352C503.141 114.136 503.597 113.168 504.509 112.448C505.437 111.728 506.669 111.368 508.205 111.368C509.517 111.368 510.597 111.608 511.445 112.088V111.584C511.445 110.816 511.141 110.168 510.533 109.64C509.925 109.096 509.213 108.824 508.397 108.824C507.165 108.824 506.189 109.344 505.469 110.384L503.525 109.16C504.597 107.624 506.181 106.856 508.277 106.856ZM519.383 103.184C519.383 103.616 519.231 103.984 518.927 104.288C518.623 104.592 518.255 104.744 517.823 104.744C517.391 104.744 517.023 104.592 516.719 104.288C516.415 103.984 516.263 103.616 516.263 103.184C516.263 102.752 516.415 102.384 516.719 102.08C517.023 101.776 517.391 101.624 517.823 101.624C518.255 101.624 518.623 101.776 518.927 102.08C519.231 102.384 519.383 102.752 519.383 103.184ZM518.927 107.24V119H516.719V107.24H518.927ZM522.281 107.24H524.393V108.872H524.489C524.825 108.296 525.337 107.816 526.025 107.432C526.729 107.048 527.457 106.856 528.209 106.856C529.649 106.856 530.753 107.272 531.521 108.104C532.305 108.92 532.697 110.088 532.697 111.608V119H530.489V111.752C530.441 109.832 529.473 108.872 527.585 108.872C526.705 108.872 525.969 109.232 525.377 109.952C524.785 110.656 524.489 111.504 524.489 112.496V119H522.281V107.24Z" fill="#C0C6F1"/>
<path d="M272.935 251.502C272.921 255.92 269.327 259.491 264.909 259.476L123 259.025C118.581 259.011 115.011 255.418 115.025 251L115.093 229.757C115.107 225.338 118.7 221.768 123.118 221.782L265.028 222.234C269.446 222.248 273.016 225.841 273.002 230.259L272.935 251.502Z" fill="#3F51B5" fill-opacity="0.21"/>
<path d="M193.602 207.014L189.624 222.002L197.485 222.027L193.602 207.014Z" fill="#3F51B5" fill-opacity="0.21"/>
<path d="M151.65 248.106L149.538 248.109L149.54 246.477L149.444 246.477C149.107 247.053 148.587 247.534 147.883 247.918C147.194 248.303 146.474 248.496 145.722 248.497C144.282 248.498 143.17 248.091 142.387 247.276C141.62 246.445 141.237 245.269 141.238 243.749L141.244 236.357L143.452 236.355L143.446 243.603C143.492 245.523 144.46 246.482 146.348 246.48C147.228 246.479 147.964 246.126 148.557 245.422C149.149 244.701 149.446 243.845 149.447 242.853L149.452 236.349L151.66 236.346L151.65 248.106ZM163.704 244.83C163.703 245.854 163.254 246.718 162.358 247.423C161.461 248.128 160.333 248.481 158.973 248.483C157.789 248.484 156.749 248.181 155.853 247.574C154.958 246.951 154.319 246.136 153.935 245.128L155.904 244.286C156.192 244.99 156.607 245.541 157.151 245.941C157.71 246.324 158.318 246.515 158.974 246.515C159.678 246.514 160.262 246.361 160.727 246.057C161.207 245.752 161.447 245.392 161.448 244.976C161.448 244.224 160.873 243.673 159.721 243.322L157.705 242.82C155.418 242.246 154.275 241.144 154.276 239.512C154.277 238.44 154.709 237.583 155.574 236.942C156.454 236.285 157.575 235.956 158.935 235.955C159.975 235.954 160.91 236.201 161.742 236.696C162.59 237.191 163.181 237.854 163.516 238.686L161.548 239.504C161.324 239.008 160.957 238.625 160.445 238.353C159.949 238.066 159.389 237.922 158.765 237.923C158.189 237.924 157.669 238.068 157.205 238.357C156.757 238.645 156.532 238.997 156.532 239.413C156.531 240.085 157.163 240.565 158.427 240.851L160.202 241.305C162.538 241.879 163.705 243.054 163.704 244.83ZM171.5 248.469C169.772 248.471 168.348 247.881 167.229 246.698C166.11 245.515 165.551 244.02 165.553 242.212C165.554 240.42 166.099 238.931 167.188 237.746C168.277 236.545 169.67 235.943 171.366 235.942C173.11 235.94 174.493 236.506 175.516 237.641C176.555 238.76 177.074 240.336 177.073 242.368L177.048 242.608L167.808 242.617C167.84 243.769 168.223 244.697 168.958 245.4C169.694 246.103 170.573 246.454 171.597 246.453C173.005 246.452 174.11 245.747 174.911 244.338L176.878 245.296C176.35 246.288 175.613 247.065 174.668 247.626C173.74 248.187 172.684 248.468 171.5 248.469ZM167.978 240.793L174.722 240.786C174.659 239.97 174.323 239.298 173.715 238.771C173.124 238.228 172.324 237.957 171.316 237.958C170.484 237.959 169.764 238.215 169.156 238.728C168.563 239.241 168.171 239.929 167.978 240.793ZM181.775 248.075L179.567 248.077L179.577 236.317L181.689 236.315L181.687 238.235L181.783 238.235C182.008 237.61 182.464 237.082 183.152 236.649C183.857 236.2 184.545 235.976 185.217 235.975C185.857 235.974 186.401 236.07 186.849 236.261L186.175 238.398C185.903 238.286 185.471 238.231 184.879 238.231C184.047 238.232 183.319 238.569 182.694 239.242C182.086 239.914 181.781 240.699 181.78 241.595L181.775 248.075ZM188.775 236.307L190.887 236.305L190.886 237.937L190.982 237.937C191.319 237.361 191.831 236.88 192.519 236.495C193.223 236.11 193.952 235.918 194.704 235.917C196.144 235.915 197.247 236.33 198.015 237.161C198.798 237.977 199.189 239.144 199.188 240.664L199.182 248.056L196.974 248.059L196.98 240.811C196.933 238.891 195.966 237.932 194.078 237.934C193.198 237.935 192.462 238.295 191.869 239.016C191.277 239.721 190.98 240.569 190.979 241.561L190.974 248.065L188.766 248.067L188.775 236.307ZM203.747 244.451C203.747 245.027 203.987 245.507 204.466 245.891C204.962 246.274 205.538 246.465 206.194 246.465C207.122 246.464 207.946 246.119 208.667 245.43C209.403 244.741 209.772 243.933 209.773 243.005C209.085 242.462 208.125 242.191 206.893 242.192C205.997 242.193 205.245 242.41 204.637 242.842C204.044 243.275 203.748 243.811 203.747 244.451ZM206.61 235.904C208.242 235.903 209.53 236.341 210.473 237.22C211.417 238.083 211.888 239.275 211.886 240.795L211.881 248.043L209.769 248.045L209.77 246.413L209.674 246.413C208.761 247.758 207.544 248.431 206.024 248.433C204.728 248.434 203.641 248.051 202.761 247.284C201.898 246.517 201.467 245.558 201.468 244.406C201.468 243.19 201.925 242.221 202.838 241.5C203.766 240.779 204.999 240.418 206.535 240.416C207.847 240.415 208.926 240.654 209.774 241.133L209.775 240.629C209.775 239.861 209.472 239.213 208.864 238.686C208.256 238.143 207.545 237.871 206.729 237.872C205.497 237.874 204.52 238.395 203.799 239.435L201.856 238.213C202.93 236.676 204.514 235.907 206.61 235.904ZM217.059 248.037L214.851 248.04L214.86 236.28L216.972 236.277L216.971 237.909L217.067 237.909C217.403 237.333 217.916 236.852 218.604 236.468C219.308 236.083 220.005 235.89 220.693 235.889C221.557 235.889 222.316 236.088 222.972 236.487C223.628 236.886 224.107 237.438 224.411 238.142C225.388 236.636 226.741 235.883 228.469 235.881C229.829 235.88 230.876 236.295 231.612 237.126C232.347 237.957 232.714 239.141 232.713 240.677L232.707 248.021L230.499 248.023L230.505 241.015C230.505 239.911 230.306 239.119 229.906 238.64C229.507 238.144 228.835 237.897 227.891 237.898C227.043 237.899 226.331 238.259 225.754 238.98C225.178 239.701 224.889 240.549 224.888 241.525L224.883 248.029L222.675 248.031L222.681 241.023C222.681 239.919 222.482 239.128 222.082 238.648C221.683 238.152 221.011 237.905 220.067 237.906C219.219 237.907 218.507 238.268 217.93 238.988C217.354 239.709 217.065 240.557 217.064 241.533L217.059 248.037ZM241.048 248.396C239.32 248.398 237.897 247.807 236.778 246.624C235.659 245.442 235.1 243.946 235.101 242.138C235.103 240.346 235.648 238.858 236.737 237.672C237.826 236.471 239.218 235.87 240.914 235.868C242.658 235.866 244.042 236.433 245.065 237.568C246.104 238.687 246.623 240.262 246.621 242.294L246.597 242.534L237.357 242.544C237.388 243.696 237.771 244.623 238.507 245.327C239.242 246.03 240.122 246.381 241.146 246.38C242.554 246.378 243.658 245.673 244.459 244.264L246.427 245.222C245.898 246.215 245.161 246.992 244.217 247.553C243.288 248.114 242.232 248.395 241.048 248.396ZM237.526 240.72L244.27 240.713C244.207 239.897 243.871 239.225 243.264 238.698C242.672 238.154 241.873 237.883 240.865 237.884C240.033 237.885 239.312 238.142 238.704 238.654C238.112 239.167 237.719 239.855 237.526 240.72Z" fill="white"/>
<defs>
<linearGradient id="paint0_linear_1005_715" x1="361" y1="0" x2="361" y2="340" gradientUnits="userSpaceOnUse">
<stop stop-color="#BFC6F1"/>
<stop offset="1" stop-color="#BFC6F1" stop-opacity="0"/>
</linearGradient>
</defs>
</svg>
